<?xml version="1.0" encoding="utf-8"?>
<!-- Generator: Adobe Illustrator 24.2.1, SVG Export Plug-In . SVG Version: 6.00 Build 0)  -->
<svg version="1.1" xmlns="http://www.w3.org/2000/svg" xmlns:xlink="http://www.w3.org/1999/xlink" x="0px" y="0px"
	 viewBox="0 0 1024 1024" style="enable-background:new 0 0 1024 1024;" xml:space="preserve">
<style type="text/css">
	.st0{font-family:'MyriadPro-Regular';}
	.st1{font-size:19.9666px;}
	.st2{fill:#011F5B;}
	.st3{fill:#990000;}
	.st4{fill:#FFFFFF;}
	.st5{fill:none;stroke:#FFFFFF;stroke-width:25;stroke-miterlimit:10;}
</style>
<g id="Layer_1">
</g>
<g id="Layer_2">
	<path d="M842.37,1024H181.63C82.7,1024,2.5,943.8,2.5,844.87V179.13C2.5,80.2,82.7,0,181.63,0h660.75
		c98.93,0,179.13,80.2,179.13,179.13v665.75C1021.5,943.8,941.3,1024,842.37,1024z"/>
	<text transform="matrix(1 0 0 1 171.894 258.0952)" class="st0 st1">Lorem ipsum</text>
	<path class="st2" d="M424.36,609.74l141.7-289.77c19.57-40.01,2.99-88.3-37.02-107.87l0,0c-40.01-19.57-88.3-2.99-107.87,37.02
		l-141.7,289.77c-19.57,40.01-2.99,88.3,37.02,107.87l0,0C356.49,666.32,404.79,649.75,424.36,609.74z"/>
	<path class="st2" d="M559.86,609.74l-141.7-289.77c-19.57-40.01-2.99-88.3,37.02-107.87l0,0c40.01-19.57,88.3-2.99,107.87,37.02
		l141.7,289.77c19.57,40.01,2.99,88.3-37.02,107.87l0,0C627.72,666.32,579.42,649.75,559.86,609.74z"/>
	<path class="st3" d="M794.04,378.03H180.45c-48.64,0-88.07-39.43-88.07-88.07v0c0-48.64,39.43-88.07,88.07-88.07h613.59
		c48.64,0,88.07,39.43,88.07,88.07v0C882.11,338.59,842.68,378.03,794.04,378.03z"/>
	<circle class="st4" cx="493.16" cy="289.95" r="63.71"/>
	<circle class="st4" cx="788.19" cy="289.95" r="63.71"/>
	<circle class="st4" cx="353.61" cy="568.28" r="63.71"/>
	<circle class="st4" cx="198.13" cy="289.95" r="63.71"/>
	<circle class="st4" cx="497.73" cy="826.91" r="63.71"/>
	<line class="st5" x1="198.13" y1="289.95" x2="501.71" y2="833.39"/>
	<circle class="st4" cx="630.6" cy="568.28" r="63.71"/>
	<line class="st5" x1="788.19" y1="289.95" x2="484.62" y2="833.39"/>
</g>
</svg>
